<mxfile host="app.diagrams.net" modified="2022-05-03T13:01:34.883Z" agent="5.0 (Windows NT 10.0; Win64; x64) AppleWebKit/537.36 (KHTML, like Gecko) Chrome/101.0.4951.41 Safari/537.36 Edg/101.0.1210.32" etag="rbLm_w1uFB-nsWGjVmCp" version="17.5.0" type="github">
  <diagram id="X3g2T4Rzv0QVc_P-P-YT" name="Page-1">
    <mxGraphModel dx="1038" dy="579" grid="1" gridSize="10" guides="1" tooltips="1" connect="1" arrows="1" fold="1" page="1" pageScale="1" pageWidth="850" pageHeight="1100" math="0" shadow="0">
      <root>
        <mxCell id="0" />
        <mxCell id="1" parent="0" />
        <mxCell id="Ms2n2sgaBEFEWqaZRNy2-3" value="" style="edgeStyle=orthogonalEdgeStyle;rounded=0;orthogonalLoop=1;jettySize=auto;html=1;" edge="1" parent="1" source="Ms2n2sgaBEFEWqaZRNy2-1" target="Ms2n2sgaBEFEWqaZRNy2-2">
          <mxGeometry relative="1" as="geometry" />
        </mxCell>
        <mxCell id="Ms2n2sgaBEFEWqaZRNy2-1" value="start" style="rounded=1;whiteSpace=wrap;html=1;" vertex="1" parent="1">
          <mxGeometry x="80" y="30" width="90" height="20" as="geometry" />
        </mxCell>
        <mxCell id="Ms2n2sgaBEFEWqaZRNy2-5" value="" style="edgeStyle=orthogonalEdgeStyle;rounded=0;orthogonalLoop=1;jettySize=auto;html=1;" edge="1" parent="1" source="Ms2n2sgaBEFEWqaZRNy2-2" target="Ms2n2sgaBEFEWqaZRNy2-4">
          <mxGeometry relative="1" as="geometry" />
        </mxCell>
        <mxCell id="Ms2n2sgaBEFEWqaZRNy2-2" value="IF truck locked target and no attack npc" style="rhombus;whiteSpace=wrap;html=1;" vertex="1" parent="1">
          <mxGeometry x="85" y="90" width="80" height="80" as="geometry" />
        </mxCell>
        <mxCell id="Ms2n2sgaBEFEWqaZRNy2-7" value="" style="edgeStyle=orthogonalEdgeStyle;rounded=0;orthogonalLoop=1;jettySize=auto;html=1;" edge="1" parent="1" source="Ms2n2sgaBEFEWqaZRNy2-4" target="Ms2n2sgaBEFEWqaZRNy2-6">
          <mxGeometry relative="1" as="geometry" />
        </mxCell>
        <mxCell id="Ms2n2sgaBEFEWqaZRNy2-4" value="construct chef npc trigger object&amp;nbsp;" style="whiteSpace=wrap;html=1;" vertex="1" parent="1">
          <mxGeometry x="65" y="220" width="120" height="60" as="geometry" />
        </mxCell>
        <mxCell id="Ms2n2sgaBEFEWqaZRNy2-9" value="" style="edgeStyle=orthogonalEdgeStyle;rounded=0;orthogonalLoop=1;jettySize=auto;html=1;" edge="1" parent="1" source="Ms2n2sgaBEFEWqaZRNy2-6" target="Ms2n2sgaBEFEWqaZRNy2-8">
          <mxGeometry relative="1" as="geometry" />
        </mxCell>
        <mxCell id="Ms2n2sgaBEFEWqaZRNy2-6" value="call&amp;nbsp;createAttackNpc" style="rounded=1;whiteSpace=wrap;html=1;fillColor=#f8cecc;gradientColor=#ea6b66;strokeColor=#b85450;" vertex="1" parent="1">
          <mxGeometry x="65" y="310" width="120" height="60" as="geometry" />
        </mxCell>
        <mxCell id="Ms2n2sgaBEFEWqaZRNy2-8" value="end" style="ellipse;whiteSpace=wrap;html=1;" vertex="1" parent="1">
          <mxGeometry x="82.5" y="410" width="85" height="30" as="geometry" />
        </mxCell>
      </root>
    </mxGraphModel>
  </diagram>
</mxfile>
